<?xml version="1.0" encoding="UTF-8"?>
<svg width="32px" height="32px" viewBox="0 0 32 32" version="1.1" xmlns="http://www.w3.org/2000/svg" xmlns:xlink="http://www.w3.org/1999/xlink">
    <!-- Generator: Sketch 51.3 (57544) - http://www.bohemiancoding.com/sketch -->
    <title>icon-button</title>
    <desc>Created with Sketch.</desc>
    <defs></defs>
    <g id="Symbols" stroke="none" stroke-width="1" fill="none" fill-rule="evenodd">
        <g id="topic/normal" transform="translate(-888.000000, -8.000000)">
            <g id="icon/icon-button" transform="translate(888.000000, 8.000000)">
                <g id="icon/24px/primary/expand" transform="translate(4.000000, 4.000000)">
                    <rect id="Rectangle-2" x="0" y="0" width="24" height="24"></rect>
                    <g id="outline-add-24px" stroke-width="1" fill-rule="evenodd">
                        <g id="Bounding_Boxes">
                            <polygon id="Shape" points="0 0 24 0 24 24 0 24"></polygon>
                        </g>
                        <g id="Outline" transform="translate(5.000000, 5.000000)" fill="#000000" fill-rule="nonzero">
                            <polygon id="Shape" points="14 8 8 8 8 14 6 14 6 8 0 8 0 6 6 6 6 0 8 0 8 6 14 6"></polygon>
                        </g>
                    </g>
                </g>
                <path d="M16,30 C23.7319865,30 30,23.7319865 30,16 C30,8.2680135 23.7319865,2 16,2 C8.2680135,2 2,8.2680135 2,16 C2,23.7319865 8.2680135,30 16,30 Z M16,32 C7.163444,32 0,24.836556 0,16 C0,7.163444 7.163444,0 16,0 C24.836556,0 32,7.163444 32,16 C32,24.836556 24.836556,32 16,32 Z" id="Oval" fill="#000000" fill-rule="nonzero"></path>
            </g>
        </g>
    </g>
</svg>